<svg id="Layer_1" data-name="Layer 1" xmlns="http://www.w3.org/2000/svg" viewBox="0 0 96 43.65"><defs><style>.cls-1{fill:#0357a1;}.cls-2{fill:#838282;}</style></defs><path d="M61.22,20.3V7.2c0-.4,0-.34.36-.34H76.93c.21,0,.28,0,.28.25,0,1.58,0,3.15,0,4.73,0,.19-.06.23-.25.23H68c-.23,0-.26.07-.26.26V17.2c0,.18.06.21.23.21h8.4c.23,0,.28.05.28.27,0,1.52,0,3,0,4.55,0,.2,0,.24-.25.24H68.08c-.3,0-.3,0-.3.28,0,1.81,0,3.62,0,5.42,0,.19,0,.24.25.24h8.89c.22,0,.3,0,.29.26q0,2.41,0,4.83c0,.19,0,.24-.25.24H61.45c-.18,0-.24-.05-.24-.23Q61.22,26.9,61.22,20.3Z"/><path d="M43.46,9a9.84,9.84,0,0,1,3.73-2,18.73,18.73,0,0,1,6.5-.6c1.15.07,2.29.2,3.42.38.18,0,.21.1.2.25-.1,1.28-.19,2.55-.28,3.83,0,.38-.06.77-.08,1.16,0,.14-.05.16-.19.12a20.46,20.46,0,0,0-3.58-.62,9.59,9.59,0,0,0-3.07.15,3,3,0,0,0-1.76,1,2.18,2.18,0,0,0,.51,3.16,9.62,9.62,0,0,0,2.41,1.23c1.14.46,2.31.86,3.41,1.4a8.89,8.89,0,0,1,3.2,2.4,6.19,6.19,0,0,1,1.3,3.49A8.22,8.22,0,0,1,55.56,32a12.59,12.59,0,0,1-5.92,2.06A25.45,25.45,0,0,1,42,33.63c-.15,0-.18-.09-.19-.24a1,1,0,0,1,.29-.72,16.09,16.09,0,0,0,2.44-4,.24.24,0,0,1,.33-.16,16.63,16.63,0,0,0,3.59.29,4.92,4.92,0,0,0,2.74-.79,2.46,2.46,0,0,0,.11-3.93,8.91,8.91,0,0,0-2.5-1.26c-.85-.32-1.71-.61-2.55-.94a.41.41,0,0,1-.31-.43,12.79,12.79,0,0,0-1.58-5.84,10.89,10.89,0,0,0-2.88-3.43c-.07-.05-.17-.1-.09-.22a.81.81,0,0,0,.11-.33,5.26,5.26,0,0,1,1-1.73,4,4,0,0,1,.82-.83A.54.54,0,0,1,43.46,9Z"/><path class="cls-1" d="M43.46,9a9.88,9.88,0,0,0-.74.71,13,13,0,0,0-.87,1.23,8,8,0,0,0-.4.9c0,.06,0,.13-.1.16s.08-.14,0-.25c-3.11,4.32-6.36,8.53-9.49,12.89-.1-.52-.19-1-.29-1.45l-1.11-5.75q-.77-4-1.54-8-.63-3.28-1.28-6.57C27.5,2,27.33,1.14,27.17.28,27.12,0,27.12,0,27.42,0H34c.2,0,.29,0,.34.24C35,2.56,35.57,4.86,36.2,7.17c0,0,0,0,0,.07a1.62,1.62,0,0,0,.26-.34L40.87.25A.46.46,0,0,1,41.33,0h8.41c.07,0,.18,0,.22,0s-.06.13-.1.18L43.57,8.78C43.52,8.84,43.44,8.9,43.46,9Z"/><path class="cls-2" d="M35.51,20.28a3.94,3.94,0,0,1,1.25,2A4.86,4.86,0,0,1,36,26.35a5.67,5.67,0,0,1-4.36,2.51,3.61,3.61,0,0,1-3.35-1.27,4.16,4.16,0,0,1-.86-2s0-.07,0-.1.1.1.14.15a2.93,2.93,0,0,0,2.14,1.18,5.09,5.09,0,0,0,3.83-1.09,5.47,5.47,0,0,0,1.74-2,4.34,4.34,0,0,0,.35-2.28C35.61,21.12,35.56,20.73,35.51,20.28Z"/><path d="M23.31,15a12.19,12.19,0,0,0-.43-1.29,9.83,9.83,0,0,0-4.51-5.14,16.25,16.25,0,0,0-7-1.8c-1.72-.1-3.45,0-5.17,0-2,0-4,.1-6,.19C0,6.93,0,7,0,7.17c0,4.37,0,8.75,0,13.12V33.16c0,.12,0,.24,0,.36s.05.15.17.15l1.25,0c2.38.11,4.76.19,7.15.18a21.77,21.77,0,0,0,4.55-.48,14.28,14.28,0,0,0,6.5-3.15.27.27,0,0,0,.11-.34A12.85,12.85,0,0,1,19.22,27a15.56,15.56,0,0,1,.77-5.9,17.08,17.08,0,0,1,3.25-5.8A.3.3,0,0,0,23.31,15ZM16.79,21.6A8.87,8.87,0,0,1,16,24.53a6.77,6.77,0,0,1-5.33,3.91,14.13,14.13,0,0,1-3.95,0c-.18,0-.19-.1-.19-.24,0-2.66,0-5.32,0-8s0-5.32,0-8c0-.19.06-.25.26-.26a21.15,21.15,0,0,1,4.77.16,5.74,5.74,0,0,1,4.79,4.21A13.79,13.79,0,0,1,16.79,21.6Z"/><path d="M95.82,33.24c0-1.3,0-2.59,0-3.88,0-.18,0-.24-.24-.24l-5.25,0c-.21,0-.24-.06-.24-.23a7.22,7.22,0,0,0,0-.93.26.26,0,0,1,.21-.29l5.29-1.91a.28.28,0,0,0,.22-.31c0-.82,0-1.65,0-2.48v-2.1l-.25.09-6.07,2.4c-.17.07-.22,0-.29-.11A4.58,4.58,0,0,0,88,21.73,4.05,4.05,0,0,0,85.68,21a4.1,4.1,0,0,0-4,1.76,5.1,5.1,0,0,0-.86,2.94c0,2.55,0,5.09,0,7.63,0,.19.09.19.23.19l14.5,0C95.79,33.46,95.82,33.41,95.82,33.24Zm-9.11-4.09H84.2c-.08,0-.17,0-.17-.11,0-.8-.06-1.61,0-2.41a1.31,1.31,0,0,1,1.75-1.1,1.13,1.13,0,0,1,.81.64,2.41,2.41,0,0,1,.25,1.08c0,.58,0,1.15,0,1.72C86.9,29.11,86.85,29.15,86.71,29.15Z"/><path d="M95.92,11.91A6.18,6.18,0,0,0,92.24,7a9.2,9.2,0,0,0-4-.84,10.8,10.8,0,0,0-2.2.22,6.44,6.44,0,0,0-5.37,7.17A6.06,6.06,0,0,0,84.7,19a9.82,9.82,0,0,0,6.4.29,6.46,6.46,0,0,0,4.82-7.37Zm-4.43,2.58a5.93,5.93,0,0,1-2.16.46,11.54,11.54,0,0,1-3.47-.23,3.54,3.54,0,0,1-1-.37A1.63,1.63,0,0,1,84,12.73a1.59,1.59,0,0,1,1-1.39A5.12,5.12,0,0,1,87,10.91c.38,0,.77,0,1.16,0a11.14,11.14,0,0,1,2.76.21,2.3,2.3,0,0,1,1.35.72A1.7,1.7,0,0,1,91.49,14.49Z"/><path class="cls-1" d="M58.54,43.65h-1.8s0-.1,0-.15v-3c0-.27,0-.55,0-.83,0-.1,0-.11-.1-.11H55.32c-.11,0-.12,0-.12.12v3.81s0,.12,0,.16H53.51s0-.1,0-.15V39.67c0-.1,0-.11-.11-.11H52.09c-.11,0-.12,0-.12.12v3.81s0,.12,0,.16h-1.7s0-.09,0-.14V42.09c0-.9,0-1.81,0-2.71a1.54,1.54,0,0,1,1-1.45c.1,0,.21,0,.31,0h2.21a1.15,1.15,0,0,1,.37.06.33.33,0,0,0,.36,0,1.19,1.19,0,0,1,.37-.06h2.33a2.89,2.89,0,0,1,.29,0,1.54,1.54,0,0,1,1.06,1.23,2.64,2.64,0,0,1,0,.28c0,1.35,0,2.7,0,4.06C58.57,43.55,58.59,43.61,58.54,43.65Z"/><path class="cls-1" d="M69.66,43.65l-.31-.07a1.5,1.5,0,0,1-1-1.42V38c0-.08,0-.09.09-.09h1.5c.06,0,.09,0,.08.08v1.11c0,.07,0,.09.08.09h2.32a.15.15,0,0,1,.13.07l1.11,1.44.06.08h-3.6c-.08,0-.1,0-.1.09q0,.54,0,1.08c0,.07,0,.09.09.09H74.8a.14.14,0,0,1,.14.07c.39.49.77,1,1.16,1.49,0,0,0,0,0,.07Z"/><path d="M32.12,43.65H25.65a1.33,1.33,0,0,1-.28,0,1.51,1.51,0,0,1-1-1,1.33,1.33,0,0,1,0-.28V37.9h1.56c.13,0,.14,0,.14.14v1s0,.07.08.07h2.2a.33.33,0,0,1,.29.14c.33.43.65.86,1,1.28a.76.76,0,0,0,.08.11c.05.08,0,.12-.07.12H26.15c-.15,0-.15,0-.15.16v.9c0,.13,0,.14.13.14h4.62a.26.26,0,0,1,.21.11l.81,1c.11.14.22.27.32.41S32.14,43.61,32.12,43.65Z"/><path class="cls-1" d="M83.55,43.65l-.32,0a1.65,1.65,0,0,1-.74-.44,5.7,5.7,0,0,1-.59-.71c-.76-1.07-1.54-2.11-2.3-3.17l-1-1.36s.05,0,.08,0h1.88a.13.13,0,0,1,.12.06l3.06,4a.17.17,0,0,0,.15.08l.69,0c.07,0,.09,0,.09-.09V38c0-.08,0-.1.09-.1h1.58c.07,0,.08,0,.08.09v4.13a1.5,1.5,0,0,1-1.31,1.52H83.55Z"/><ellipse class="cls-1" cx="77.34" cy="40.77" rx="1.17" ry="4.08"/><path class="cls-1" d="M67.53,39.38a1.55,1.55,0,0,0-1.06-1.45c-.1,0-.2,0-.3,0H60.62a2.54,2.54,0,0,0-.29,0,1.53,1.53,0,0,0-1.08,1.45v2.79a1.52,1.52,0,0,0,1.08,1.44,2.54,2.54,0,0,0,.29,0h5.55c.09,0,.19,0,.29,0a1.53,1.53,0,0,0,1.07-1.45ZM65.75,42H60.93c-.07,0-.08,0-.08-.09V39.61c0-.07,0-.09.09-.09h4.81c.07,0,.08,0,.08.09v2.32C65.83,42,65.81,42,65.75,42Z"/><path d="M40.25,38.66a1.49,1.49,0,0,0-.9-.73c-.1,0-.2,0-.3,0H33.54a3.11,3.11,0,0,0-.32,0,1.55,1.55,0,0,0-1.06,1.46v2.74a1.56,1.56,0,0,0,.19.76,1.27,1.27,0,0,0,1.19.76h5.51a3.11,3.11,0,0,0,.32,0,1.52,1.52,0,0,0,1.07-1.46V39.42A1.56,1.56,0,0,0,40.25,38.66ZM38.65,42H33.84c-.07,0-.09,0-.09-.09,0-.77,0-1.55,0-2.32,0-.07,0-.09.09-.09h4.81c.07,0,.09,0,.09.09v2.32C38.74,42,38.72,42,38.65,42Z"/><path class="cls-1" d="M95.74,43.48l-1-1.34a.35.35,0,0,0-.31-.16H88.94c-.06,0-.08,0-.08-.08v-.2c0-.11,0-.11.12-.11h3.78a.51.51,0,0,0,.29-.08.94.94,0,0,0,.32-1.13,1.83,1.83,0,0,0-.18-.3c-.25-.37-.51-.72-.78-1.07a6.42,6.42,0,0,0-.58-.69A1.3,1.3,0,0,0,91,37.9a.25.25,0,0,1-.12,0H88.55a1,1,0,0,0-.59.16,1.54,1.54,0,0,0-.78,1.36c0,.9,0,1.79,0,2.69a1.23,1.23,0,0,0,0,.27,1.5,1.5,0,0,0,1.06,1.23,1.35,1.35,0,0,0,.29,0h7.27C95.83,43.58,95.78,43.53,95.74,43.48Zm-6.89-3.57v-.33s0-.06.05,0H91a.07.07,0,0,1,.06,0l.33.43H88.92S88.84,40,88.85,39.91Z"/><path d="M49.4,39.64a2.43,2.43,0,0,0,0-.47,1.54,1.54,0,0,0-1-1.24,3.31,3.31,0,0,0-.33,0h-6.8s0,.1,0,.16v5.46c0,.05,0,.1,0,.14h1.71a.22.22,0,0,0,0-.14V41.82c0-.18,0-.17.16-.17h4.71l.26,0a1.53,1.53,0,0,0,1.3-1.3C49.41,40.1,49.39,39.87,49.4,39.64Zm-1.67.26c0,.07,0,.08-.08.08H43c-.07,0-.09,0-.09-.09a1.61,1.61,0,0,0,0-.31s0-.06.06,0h4.67c.07,0,.1,0,.09.1A1.31,1.31,0,0,0,47.73,39.9Z"/><path class="cls-1" d="M94.73,39l.09-.05a.26.26,0,0,0,0-.43l-.18-.07a2.68,2.68,0,0,0-.49,0c-.06,0-.08,0-.08.09v.79c0,.18,0,.17.18.17s.06,0,.06-.06v-.3s0,0,0-.05a.24.24,0,0,1,.3.14l.06.21s0,.06.06.06H95C94.89,39.28,95,39.05,94.73,39Zm-.11-.11a.46.46,0,0,1-.26,0s0,0,0-.05v-.11c0-.16,0-.16.17-.15a.27.27,0,0,1,.12,0A.14.14,0,0,1,94.62,38.84Z"/><path class="cls-1" d="M94.88,38l-.25-.07H94.3a1,1,0,0,0-.84,1.26A1.06,1.06,0,0,0,95.55,39,1,1,0,0,0,94.88,38Zm-.37,1.79a.81.81,0,0,1-.82-.83.8.8,0,0,1,.79-.82.83.83,0,0,1,0,1.65Z"/><path d="M.07,38.82H.42s0,0,0,0,0,.06,0,.09v.16A1.47,1.47,0,0,1,.56,39a.58.58,0,0,1,.15-.11.49.49,0,0,1,.18-.08.8.8,0,0,1,.23,0,1,1,0,0,1,.35.06.66.66,0,0,1,.27.2.75.75,0,0,1,.18.33,1.62,1.62,0,0,1,.07.48,1.18,1.18,0,0,1-.3.86A1.11,1.11,0,0,1,.84,41H.65L.49,41v1H.07Zm.42,1.79a.42.42,0,0,0,.16,0l.22,0a.76.76,0,0,0,.27-.05.48.48,0,0,0,.22-.15.86.86,0,0,0,.14-.25,1.36,1.36,0,0,0,.05-.36,1.05,1.05,0,0,0-.12-.54A.44.44,0,0,0,1,39.13a.51.51,0,0,0-.2,0,.45.45,0,0,0-.17.11.52.52,0,0,0-.12.19.73.73,0,0,0,0,.27Z"/><path d="M3.41,41A1.23,1.23,0,0,1,3,40.93a.92.92,0,0,1-.31-.24,1.08,1.08,0,0,1-.19-.35,1.63,1.63,0,0,1-.06-.45,1.56,1.56,0,0,1,.06-.44,1,1,0,0,1,.19-.36A.79.79,0,0,1,3,38.86a1,1,0,0,1,.44-.09,1,1,0,0,1,.44.09.72.72,0,0,1,.31.23.89.89,0,0,1,.19.36,1.56,1.56,0,0,1,.06.44,1.63,1.63,0,0,1-.06.45.92.92,0,0,1-.19.35.83.83,0,0,1-.31.24A1.15,1.15,0,0,1,3.41,41Zm0-.33a.48.48,0,0,0,.43-.21,1.27,1.27,0,0,0,0-1.16.5.5,0,0,0-.43-.2.48.48,0,0,0-.42.2,1.27,1.27,0,0,0,0,1.16A.46.46,0,0,0,3.41,40.68Z"/><path d="M4.65,38.82H5.1l.42,1.75L6,38.82h.42l.47,1.72.42-1.72h.41L7.07,41,7,41H6.75l-.11,0-.46-1.62L5.7,41l-.11,0H5.38l-.1,0Z"/><path d="M8.38,40a.67.67,0,0,0,.18.52.69.69,0,0,0,.51.16,1.47,1.47,0,0,0,.56-.1.52.52,0,0,1,.06.15,1.1,1.1,0,0,1,0,.18,1.32,1.32,0,0,1-.3.08A2.05,2.05,0,0,1,9,41a1.28,1.28,0,0,1-.5-.08.82.82,0,0,1-.34-.23.87.87,0,0,1-.2-.35,1.51,1.51,0,0,1-.06-.44A1.63,1.63,0,0,1,8,39.46a1,1,0,0,1,.18-.36,1,1,0,0,1,.32-.24A1.06,1.06,0,0,1,9,38.77a.94.94,0,0,1,.39.07.83.83,0,0,1,.28.21,1,1,0,0,1,.17.31,1.29,1.29,0,0,1,.06.4.49.49,0,0,1,0,.12.34.34,0,0,1,0,.11Zm1.06-.31a.83.83,0,0,0,0-.22,1.14,1.14,0,0,0-.1-.19.44.44,0,0,0-.15-.12.4.4,0,0,0-.22,0,.54.54,0,0,0-.4.15.79.79,0,0,0-.16.43Z"/><path d="M10.39,38.82h.35a1.57,1.57,0,0,1,0,.16,1.21,1.21,0,0,1,0,.18.92.92,0,0,1,.23-.25.62.62,0,0,1,.37-.1h.13a.25.25,0,0,1,0,.08.28.28,0,0,1,0,.09.45.45,0,0,1,0,.11s0,.07,0,.1h-.13a.71.71,0,0,0-.21,0,.52.52,0,0,0-.19.11.67.67,0,0,0-.13.22,1.15,1.15,0,0,0,0,.36V41l-.1,0h-.2l-.11,0Z"/><path d="M12.19,40a.75.75,0,0,0,.18.52.74.74,0,0,0,.52.16,1.54,1.54,0,0,0,.56-.1,1.16,1.16,0,0,1,.06.15,1.1,1.1,0,0,1,0,.18,1.32,1.32,0,0,1-.3.08,2.05,2.05,0,0,1-.37,0,1.28,1.28,0,0,1-.5-.08A.93.93,0,0,1,12,40.7a.85.85,0,0,1-.19-.35,1.23,1.23,0,0,1-.07-.44,1.63,1.63,0,0,1,.06-.45A1,1,0,0,1,12,39.1a.87.87,0,0,1,.32-.24,1,1,0,0,1,.45-.09.92.92,0,0,1,.38.07.67.67,0,0,1,.28.21.87.87,0,0,1,.18.31,1.68,1.68,0,0,1,.05.4v.12s0,.08,0,.11Zm1.06-.31a.83.83,0,0,0,0-.22.66.66,0,0,0-.09-.19.44.44,0,0,0-.15-.12.43.43,0,0,0-.23,0,.5.5,0,0,0-.39.15.79.79,0,0,0-.16.43Z"/><path d="M15.58,37.9H16v3a1.64,1.64,0,0,1-.35.08,2.94,2.94,0,0,1-.44,0,2,2,0,0,1-.43,0,.85.85,0,0,1-.35-.19,1,1,0,0,1-.24-.33,1.29,1.29,0,0,1-.09-.51,1.4,1.4,0,0,1,.08-.47,1,1,0,0,1,.22-.37.89.89,0,0,1,.34-.23,1,1,0,0,1,.44-.09l.22,0,.19,0Zm0,1.28-.18,0-.21,0a.65.65,0,0,0-.29.07.58.58,0,0,0-.21.17.89.89,0,0,0-.12.26,1.08,1.08,0,0,0,0,.32.76.76,0,0,0,.19.57.72.72,0,0,0,.5.17h.2l.16,0Z"/><path d="M17.64,37.9h.42v1.18a.61.61,0,0,1,.23-.22.8.8,0,0,1,.39-.09,1,1,0,0,1,.35.06.69.69,0,0,1,.28.2.75.75,0,0,1,.18.33,1.35,1.35,0,0,1,.07.48,1.15,1.15,0,0,1-.31.86,1.22,1.22,0,0,1-.9.31L18,41l-.33-.08Zm.42,2.72.16,0h.18a.64.64,0,0,0,.28,0,.59.59,0,0,0,.23-.14.58.58,0,0,0,.15-.25,1,1,0,0,0,.06-.36,1,1,0,0,0-.12-.54.44.44,0,0,0-.4-.2.58.58,0,0,0-.19,0,.67.67,0,0,0-.18.11.41.41,0,0,0-.12.18.61.61,0,0,0-.05.28Z"/><path d="M20.81,41H20.5l-.71-2.14h.46l.59,2,.62-2h.42l-.83,2.58a2.85,2.85,0,0,1-.12.29.66.66,0,0,1-.14.18.32.32,0,0,1-.18.1.75.75,0,0,1-.23,0h-.19L20,42a.91.91,0,0,1,0-.17l.05-.15.11,0h.24a.18.18,0,0,0,.09,0,.36.36,0,0,0,.08-.09l.07-.16Z"/></svg>