<?xml version="1.0" encoding="utf-8"?>
<!-- Generator: Adobe Illustrator 24.0.3, SVG Export Plug-In . SVG Version: 6.00 Build 0)  -->
<svg version="1.1" id="Layer_1" xmlns="http://www.w3.org/2000/svg" xmlns:xlink="http://www.w3.org/1999/xlink" x="0px" y="0px"
	 viewBox="0 0 24 23.9" style="enable-background:new 0 0 24 23.9;" xml:space="preserve">
<style type="text/css">
	.st0{fill-rule:evenodd;clip-rule:evenodd;fill:#202020;}
</style>
<path class="st0" d="M4.8,19.1c1.3,0,2.4,1.1,2.4,2.4s-1.1,2.4-2.4,2.4c-1.3,0-2.4-1.1-2.4-2.4C2.4,20.2,3.5,19.1,4.8,19.1z
	 M14.4,19.1c1.3,0,2.4,1.1,2.4,2.4s-1.1,2.4-2.4,2.4S12,22.9,12,21.5C12,20.2,13.1,19.1,14.4,19.1z M24,0v2.4h-3.8L16.8,17
	c-0.1,0.5-0.6,0.9-1.2,0.9h-12c-0.6,0-1-0.4-1.2-0.9L0,7.5c-0.1-0.4,0-0.7,0.2-1C0.5,6.2,0.8,6,1.2,6h15.7L18,0.9
	C18.2,0.4,18.6,0,19.2,0C19.2,0,24,0,24,0z M16.3,8.4H2.7l1.8,7.2h10.1L16.3,8.4z"/>
</svg>
