<?xml version="1.0" encoding="utf-8"?>
<!-- Generator: Adobe Illustrator 24.0.3, SVG Export Plug-In . SVG Version: 6.00 Build 0)  -->
<svg version="1.1" id="Layer_1" xmlns="http://www.w3.org/2000/svg" xmlns:xlink="http://www.w3.org/1999/xlink" x="0px" y="0px"
	 viewBox="0 0 24 13" style="enable-background:new 0 0 24 13;" xml:space="preserve">
<style type="text/css">
	.st0{fill-rule:evenodd;clip-rule:evenodd;fill:#202020;}
</style>
<path class="st0" d="M22,9h-0.2c-0.4-1.2-1.5-2-2.8-2s-2.4,0.8-2.8,2H8.8C8.4,7.8,7.3,7,6,7S3.6,7.8,3.2,9H2V8c0-1.1,0.9-2,2-2h18V9
	z M19,11c-0.6,0-1-0.4-1-1s0.4-1,1-1s1,0.4,1,1S19.6,11,19,11z M6,11c-0.6,0-1-0.4-1-1s0.4-1,1-1s1,0.4,1,1S6.6,11,6,11z M8.6,2H13
	v2H7.6L8.6,2z M19,4h-4V2h2.5L19,4z M22,4h-0.5l-2.7-3.6C18.6,0.1,18.3,0,18,0H8C7.6,0,7.3,0.2,7.1,0.6L5.4,4H4C1.8,4,0,5.8,0,8v2
	c0,0.6,0.4,1,1,1h2.2c0.4,1.2,1.5,2,2.8,2s2.4-0.8,2.8-2h7.4c0.4,1.2,1.5,2,2.8,2s2.4-0.8,2.8-2H23c0.6,0,1-0.4,1-1V6
	C24,4.9,23.1,4,22,4z"/>
</svg>
