<?xml version="1.0" encoding="utf-8"?>
<!-- Generator: Adobe Illustrator 24.0.3, SVG Export Plug-In . SVG Version: 6.00 Build 0)  -->
<svg version="1.1" id="Layer_1" xmlns="http://www.w3.org/2000/svg" xmlns:xlink="http://www.w3.org/1999/xlink" x="0px" y="0px"
	 viewBox="0 0 24 23.8" style="enable-background:new 0 0 24 23.8;" xml:space="preserve">
<style type="text/css">
	.st0{fill-rule:evenodd;clip-rule:evenodd;fill:#202020;}
</style>
<path class="st0" d="M14.1,0l0.2,0.6c0.5,0.1,1,0.2,1.4,0.4l0.5-0.4L20,2.8l-0.1,0.7c0.4,0.4,0.8,0.8,1.1,1.2l0.7-0.1l1.9,3.8
	l-0.4,0.5c0.1,0.4,0.2,0.8,0.3,1.3l0.6,0.3l-0.2,4.3l-0.6,0.2c-0.1,0.4-0.2,0.8-0.4,1.2l0.4,0.5l-2.3,3.6l-0.7-0.1
	c-0.2,0.2-0.4,0.4-0.7,0.6l0.1,0.7l-3.8,2l-0.5-0.4c-0.3,0.1-0.6,0.2-0.9,0.2l-0.2,0.6H9.9l-0.2-0.6c-0.5-0.1-1-0.2-1.4-0.4
	l-0.5,0.4L4,21l0.1-0.7c-0.4-0.4-0.8-0.8-1.1-1.2l-0.7,0.1l-1.9-3.8l0.4-0.5c-0.1-0.4-0.2-0.8-0.3-1.3L0,13.4l0.2-4.3l0.6-0.2
	C1,8.5,1.1,8.1,1.3,7.7L0.9,7.2l2.3-3.6l0.7,0.1c0.2-0.2,0.4-0.4,0.7-0.6L4.5,2.4l3.8-2l0.5,0.4C9,0.8,9.3,0.7,9.6,0.6L9.9,0
	C9.9,0,14.1,0,14.1,0z M12,3.5c-4.6,0-8.4,3.8-8.4,8.4c0,4.6,3.8,8.4,8.4,8.4c4.6,0,8.4-3.8,8.4-8.4S16.6,3.5,12,3.5z M12,8
	c2.3,0,4.1,1.8,4.1,4.1s-1.8,4.1-4.1,4.1s-4.1-1.8-4.1-4.1S9.8,8,12,8z M12,9.9c-1.2,0-2.2,1-2.2,2.2c0,1.2,1,2.2,2.2,2.2
	c1.2,0,2.2-1,2.2-2.2C14.2,10.9,13.2,9.9,12,9.9z"/>
</svg>
